<?xml version="1.0" encoding="utf-8"?>
<!-- Generator: Adobe Illustrator 18.0.0, SVG Export Plug-In . SVG Version: 6.00 Build 0)  -->
<!DOCTYPE svg PUBLIC "-//W3C//DTD SVG 1.1//EN" "http://www.w3.org/Graphics/SVG/1.1/DTD/svg11.dtd">
<svg version="1.1" id="图层_1" xmlns="http://www.w3.org/2000/svg" xmlns:xlink="http://www.w3.org/1999/xlink" x="0px" y="0px"
	 viewBox="0 0 60 60" enable-background="new 0 0 60 60" xml:space="preserve">
<ellipse opacity="0.15" fill="#363649" cx="30.1" cy="56" rx="6.8" ry="3.2"/>
<g>
	<path fill="#38444C" d="M54.6,38.5l-14.4,6.3c-1.8,0.8-3.3,2.1-4.4,3.7l-4.9,7.3c-0.4,0.7-1.4,0.7-1.9,0l-4.9-7.3
		c-1.1-1.6-2.6-2.9-4.4-3.7L5.4,38.5L54.6,38.5z"/>
	<path fill="#C6D4DB" d="M54.7,37.5l-10.9-3.8c-3.3-1.1-5.8-3.8-6.7-7.2L30.9,2.5c-0.2-0.9-1.6-0.9-1.8,0l-6.3,24.1
		c-0.9,3.4-3.4,6.1-6.7,7.2L5.3,37.5c-0.4,0.2-0.4,0.8,0,0.9C8.8,39.6,19,42.7,30,42.7c11,0,21.2-3.1,24.7-4.3
		C55.2,38.3,55.2,37.7,54.7,37.5z"/>
</g>
</svg>
