<?xml version="1.0" encoding="utf-8"?>
<!-- Generator: Adobe Illustrator 18.0.0, SVG Export Plug-In . SVG Version: 6.00 Build 0)  -->
<!DOCTYPE svg PUBLIC "-//W3C//DTD SVG 1.1//EN" "http://www.w3.org/Graphics/SVG/1.1/DTD/svg11.dtd">
<svg version="1.1" id="图层_1" xmlns="http://www.w3.org/2000/svg" xmlns:xlink="http://www.w3.org/1999/xlink" x="0px" y="0px"
	 viewBox="0 0 60 60" enable-background="new 0 0 60 60" xml:space="preserve">
<path fill="#E02000" d="M23.2,15.3l20.6-8.6l8.5,12.1l6.5-3.2L47.2,28l-13.7-6.9L42,43.2c2.8,7.5-3.3,13.6-9.9,14.5
	c-9.3,1.1-17.7-3.5-20-9.3c-2.4-6.2-0.3-11.3,6-13.8c4.4-1.8,14-1.2,19,3.5L23.2,15.3z"/>
<path fill="#FFE600" d="M17.7,14.5L37.4,4l9.6,11.3l6.2-3.8L42.8,24.9l-14.2-5.6L39,40.5c3.4,7.2-2,13.9-8.6,15.3
	c-9.1,2-18-1.9-20.7-7.5c-3-5.9-1.3-11.2,4.7-14.3c4.2-2.2,13.8-2.4,19.2,1.7L17.7,14.5z"/>
</svg>
