<?xml version="1.0" encoding="utf-8"?>
<!-- Generator: Adobe Illustrator 18.0.0, SVG Export Plug-In . SVG Version: 6.00 Build 0)  -->
<!DOCTYPE svg PUBLIC "-//W3C//DTD SVG 1.1//EN" "http://www.w3.org/Graphics/SVG/1.1/DTD/svg11.dtd">
<svg version="1.1" id="图层_1" xmlns="http://www.w3.org/2000/svg" xmlns:xlink="http://www.w3.org/1999/xlink" x="0px" y="0px"
	 viewBox="0 0 60 60" enable-background="new 0 0 60 60" xml:space="preserve">
<path fill="#34495E" d="M41.4,34c0,6.3-5.1,11.4-11.4,11.4S18.6,40.3,18.6,34S23.7,22.6,30,22.6S41.4,27.7,41.4,34z"/>
<path fill="#2C3E50" d="M38.5,33.8c0,4.7-3.8,8.5-8.5,8.5s-8.5-3.8-8.5-8.5s3.8-8.5,8.5-8.5S38.5,29.1,38.5,33.8z"/>
<path fill="#34495E" d="M35.7,34c0,3.1-2.5,5.7-5.7,5.7s-5.7-2.5-5.7-5.7s2.5-5.7,5.7-5.7S35.7,30.9,35.7,34z"/>
<path fill="#3498DB" d="M32.8,34c0,1.6-1.3,2.8-2.8,2.8s-2.8-1.3-2.8-2.8c0-1.6,1.3-2.8,2.8-2.8S32.8,32.5,32.8,34z"/>
<path fill="#ECF0F1" d="M30,28.2c0,1.6-1.3,2.8-2.8,2.8c-1.6,0-2.8-1.3-2.8-2.8s1.3-2.8,2.8-2.8C28.7,25.3,30,26.6,30,28.2z"/>
<polyline opacity="0.5" fill="#A50000" points="55,52.1 56.9,24 46,20.8 45.3,11.2 37.3,9.5 45.2,44.5 "/>
<g>
	<path fill="#222222" d="M53,20l-11-3L40,7H20l-2,10L7,20L5,52h50L53,20z M30,46.6c-7,0-12.7-5.7-12.7-12.7c0-7,5.7-12.7,12.7-12.7
		c7,0,12.7,5.7,12.7,12.7C42.7,40.9,37,46.6,30,46.6z"/>
</g>
<path fill="#FFFFFF" d="M30,48.1c-7.8,0-14.2-6.4-14.2-14.2c0-7.8,6.4-14.2,14.2-14.2s14.2,6.4,14.2,14.2
	C44.2,41.8,37.8,48.1,30,48.1z M30,22.7c-6.2,0-11.2,5-11.2,11.2c0,6.2,5,11.2,11.2,11.2s11.2-5,11.2-11.2
	C41.2,27.7,36.2,22.7,30,22.7z"/>
</svg>
