<?xml version="1.0" encoding="UTF-8"?>
<svg width="56px" height="53px" viewBox="0 0 56 53" version="1.1" xmlns="http://www.w3.org/2000/svg" xmlns:xlink="http://www.w3.org/1999/xlink">
    <!-- Generator: Sketch 46.2 (44496) - http://www.bohemiancoding.com/sketch -->
    <title>code</title>
    <desc>Created with Sketch.</desc>
    <defs></defs>
    <g id="Page-28" stroke="none" stroke-width="1" fill="none" fill-rule="evenodd">
        <g id="code" transform="translate(6.000000, 8.000000)">
            <g id="Group" opacity="0.5" fill-rule="nonzero">
                <g transform="translate(0.000000, 3.739130)" id="Shape" fill="#999999">
                    <path d="M45,34.5869565 C45,37.2043478 42.893617,39.2608696 40.212766,39.2608696 L4.78723404,39.2608696 C2.10638298,39.2608696 0,37.2043478 0,34.5869565 L0,4.67391304 C0,2.05652174 2.10638298,0 4.78723404,0 L40.212766,0 C42.893617,0 45,2.05652174 45,4.67391304 L45,34.5869565 Z"></path>
                </g>
                <g id="Shape" fill="#CCCCCC">
                    <path d="M45,34.5869565 C45,37.2043478 42.893617,39.2608696 40.212766,39.2608696 L4.78723404,39.2608696 C2.10638298,39.2608696 0,37.2043478 0,34.5869565 L0,4.67391304 C0,2.05652174 2.10638298,0 4.78723404,0 L40.212766,0 C42.893617,0 45,2.05652174 45,4.67391304 L45,34.5869565 Z"></path>
                </g>
            </g>
            <path d="M19.8896457,17.9089623 L19.8896457,14.2042033 C19.8896457,13.7568526 19.5269963,13.3942033 19.0796457,13.3942033 L19.0796457,13.3942033 L14.4327211,13.3942033 L14.4327211,13.3942033 C13.9853705,13.3942033 13.6227211,13.7568526 13.6227211,14.2042033 L13.6227211,14.2042033 L13.6227211,22.1755587 L13.8452424,22.1755587 L13.8452424,23.3658869 L13.8452424,23.3658869 C13.8452424,23.8132375 14.2078917,24.1758869 14.6552424,24.1758869 L14.6552424,24.1758869 L31.3909736,24.1758869 C31.8383242,24.1758869 32.2009736,23.8132375 32.2009736,23.3658869 L32.2009736,18.7189623 C32.2009736,18.2716117 31.8383242,17.9089623 31.3909736,17.9089623 L19.8896457,17.9089623 Z" id="Combined-Shape" fill="#4A4A4A" transform="translate(22.925187, 18.780504) rotate(-45.000000) translate(-22.925187, -18.780504) "></path>
        </g>
    </g>
</svg>