<?xml version="1.0" encoding="utf-8"?>
<!-- Generator: Adobe Illustrator 18.0.0, SVG Export Plug-In . SVG Version: 6.00 Build 0)  -->
<!DOCTYPE svg PUBLIC "-//W3C//DTD SVG 1.1//EN" "http://www.w3.org/Graphics/SVG/1.1/DTD/svg11.dtd">
<svg version="1.1" id="图层_1" xmlns="http://www.w3.org/2000/svg" xmlns:xlink="http://www.w3.org/1999/xlink" x="0px" y="0px"
	 viewBox="0 0 60 60" enable-background="new 0 0 60 60" xml:space="preserve">
<path opacity="5.000000e-02" fill="#00406B" d="M55.3,28.9L55.3,28.9L55.3,28.9l-1.9-0.2l0.5-6c0,0-5-0.4-10.6-0.9
	c-5.6-0.5-6.9-3.6-6.6-7.8c0.6-7.1-6.4-7.4-6.4-7.4l-11.1-1l-1.7,19.9l-2.3-0.2l0,0L10.5,25l-0.7,8l-3-0.3L5.6,46.7l3,0.3l-0.7,8
	l4.7,0.4l0,0l40,3.4l0,0l0,0l4.1,0.4l2.6-29.9L55.3,28.9z"/>
<g>
	<path fill="#745027" d="M12.2,48.1c-0.2-14.3-0.5-28.6-0.7-42.9C15.3,5.1,19.1,5,23,4.9c0,0,7.2-0.4,7.2,6.8c0,4.2,1.6,7.2,7.3,7.2
		c5.7,0,10.9-0.1,10.9-0.1C48.2,28.8,48,38.9,47.8,49"/>
</g>
<rect x="2.2" y="33.2" fill="#666666" width="23.4" height="14.1"/>
<polygon fill="#222222" points="54.3,25.2 54.3,55.3 49.9,55.3 30.8,47.3 9.7,55.3 5.4,55.3 5.4,25.2 9.7,25.2 30.8,32.2 49.9,25.2 
	"/>
<rect x="9.7" y="25.2" fill="#12BA00" width="40.2" height="30.1"/>
<g>
	<path fill="#FFFFFF" d="M18.8,44c-0.6,0.5-1,0.8-1.5,1.2c0,0,0,0.1,0,0.1c1.4,0,4.4-0.2,5.7-0.2c0,0,0,0,0.1,0c0,0.8,0,1.7-0.1,2.5
		c-1,0-5.1,0-6.6,0c-1.2,0-2.1,0-2.6,0c-0.2-0.6-0.5-1.2-0.6-1.8c1.3-1.1,2.1-1.7,2.9-2.5c1.6-1.6,3.1-3.1,3-4.9
		c0-0.7-0.2-1.2-0.5-1.6c-0.3-0.4-0.8-0.6-1.3-0.6c-0.6,0-1.1,0.2-1.4,0.4c-0.1,0.1-0.1,0.1-0.1,0.2c-0.1,0.7-0.3,1.4-0.4,2.1
		c-0.7,0-1.5-0.2-2.1-0.2c0-1.3,0-2.5,0-3.8c1-0.4,2.7-0.7,4.1-0.7c1.9,0,3.1,0.4,4,1.2c0.9,0.7,1.3,1.8,1.4,2.9
		C22.7,40.8,20.2,42.8,18.8,44z"/>
	<path fill="#FFFFFF" d="M32.6,46.5c-0.8,0.8-1.9,1.1-3.2,1.1c-1.2,0-2.1-0.4-2.8-1c-1.1-0.9-1.9-2.2-2-5.2c0-3.2,0.8-5,2-6.1
		c1-0.9,2.1-1.3,3.4-1.3c1.5,0,2.4,0.5,3.1,1.2c0.8,0.8,1.7,2.5,1.6,5.5C34.6,43.6,33.7,45.4,32.6,46.5z M28.8,36.3
		c-0.4,0.5-0.6,2.8-0.6,4.9c0,2.1,0.2,3.7,0.5,4.1c0.2,0.5,0.5,0.7,0.9,0.7c0.4,0,0.6-0.1,0.9-0.5c0.4-0.6,0.6-2,0.6-4.2
		c0-2.4-0.2-4.3-0.5-4.9c-0.2-0.4-0.5-0.7-0.9-0.7C29.3,35.8,29.1,35.9,28.8,36.3z"/>
	<path fill="#FFFFFF" d="M44.1,46.4c-0.8,0.8-1.9,1.1-3.2,1.1c-1.2,0-2.1-0.4-2.8-1c-1.1-0.9-1.9-2.2-2-5.2c0-3.2,0.8-5,2-6.1
		c1-0.9,2.1-1.3,3.4-1.3c1.5,0,2.4,0.5,3.1,1.2c0.8,0.8,1.7,2.5,1.6,5.5C46.2,43.5,45.3,45.3,44.1,46.4z M40.4,36.3
		c-0.4,0.5-0.6,2.8-0.6,4.9c0,2.1,0.2,3.7,0.5,4.1c0.2,0.5,0.5,0.7,0.9,0.7c0.4,0,0.6-0.1,0.9-0.5c0.4-0.6,0.6-2,0.6-4.2
		c0-2.4-0.2-4.3-0.5-4.9c-0.2-0.4-0.5-0.7-0.9-0.7C40.9,35.7,40.7,35.8,40.4,36.3z"/>
</g>
</svg>
