<?xml version="1.0" encoding="utf-8"?>
<!-- Generator: Adobe Illustrator 18.0.0, SVG Export Plug-In . SVG Version: 6.00 Build 0)  -->
<!DOCTYPE svg PUBLIC "-//W3C//DTD SVG 1.1//EN" "http://www.w3.org/Graphics/SVG/1.1/DTD/svg11.dtd">
<svg version="1.1" id="图层_1" xmlns="http://www.w3.org/2000/svg" xmlns:xlink="http://www.w3.org/1999/xlink" x="0px" y="0px"
	 viewBox="0 0 60 60" enable-background="new 0 0 60 60" xml:space="preserve">
<g>
	<g opacity="0.5">
		<g>
			<path fill="#999999" d="M53,49c0,2.8-2.2,5-5,5H11c-2.8,0-5-2.2-5-5V17c0-2.8,2.2-5,5-5h37c2.8,0,5,2.2,5,5V49z"/>
		</g>
		<g>
			<path fill="#CCCCCC" d="M53,45c0,2.8-2.2,5-5,5H11c-2.8,0-5-2.2-5-5V13c0-2.8,2.2-5,5-5h37c2.8,0,5,2.2,5,5V45z"/>
		</g>
	</g>
	<text transform="matrix(1 0 0 1 26.6201 34.1621)" font-family="'ComicSansMS-Bold'" font-size="18.4904">{</text>
</g>
</svg>
